<?xml version="1.0" encoding="utf-8"?>
<!DOCTYPE svg PUBLIC "-//W3C//DTD SVG 1.1//EN" "http://www.w3.org/Graphics/SVG/1.1/DTD/svg11.dtd">
<svg id="earthjustice-logo_tag" xmlns="http://www.w3.org/2000/svg" viewBox="0 0 261.5 52.6" preserveAspectRatio="xMinYMin meet"><title>Earthjustice</title><path d="M27.2,42.4a1.07,1.07,0,0,0-1,.9V53.7h2V43.3a1.07,1.07,0,0,0-1-.9" transform="translate(-0.9 -1.1)"/><path d="M29.4,24.2l-3.3-1.7a1.85,1.85,0,0,0-.7-.2H22.8a1.85,1.85,0,0,1-.7-.2l-1.6-1.2a.71.71,0,0,1-.3-.6v-1a.43.43,0,0,1,.4-.4h1a.43.43,0,0,1,.4.4v.8a.4.4,0,0,0,.8,0V18.4a.71.71,0,0,1,.3-.6l1.5-1.9s2.2-1,2.1-1.6L26.3,13s0-.5-.7-1c-.4-.3-1.5,1.5-1.7,1.5a1.58,1.58,0,0,1-.8-.3l-.6-.6c-.1-.5.5-1.1.5-1.7s-.2-1.5-.2-1.5c-3.3,1.7-6.1,4.4-6.9,8l.6,1.1a.6.6,0,0,0,.6.3h.5a.71.71,0,0,1,.6.3l1,1.6a1.21,1.21,0,0,0,.5.5l2.1,1.4a1.85,1.85,0,0,0,.7.2h.3a.43.43,0,0,1,.4.4l-.5.7c0,.1-.2,0,.1,1L23,26s.2.4.5.4H24l.1.5c0,.3.4,2.2.9,5,0,0,.7-.1.7-.3s-.1-.4-.3-.4L28.3,28a1.47,1.47,0,0,0,.5-.6l1-2a1.85,1.85,0,0,0,.2-.7v-.1c-.3-.1-.4-.3-.6-.4" transform="translate(-0.9 -1.1)"/><path d="M27.2,1.1a26.31,26.31,0,0,0-7.6,51.5V44.2a2,2,0,0,0-2-2V40.5H36.7v1.7a2,2,0,0,0-2,2v8.4A26.31,26.31,0,0,0,27.2,1.1M38.7,39.4H15.6V36.8H38.7ZM27.2,33.3a13,13,0,1,1,13-13,13,13,0,0,1-13,13" transform="translate(-0.9 -1.1)"/><path d="M22.9,42.4a1,1,0,0,0-1,.9v9.9l2,.3V43.3a1,1,0,0,0-1-.9" transform="translate(-0.9 -1.1)"/><path d="M35.5,13.5l.3-.1c.5-.2.7-.3.5-.6-1.3-2.2-4.8-3.5-4.8-3.5l-.9,1a17.1,17.1,0,0,0-1.1,1.4,4,4,0,0,0,.4,1.2c.2,0,.3,0,.4.2l.1.4-.5.2a.57.57,0,0,0-.4.7l.7,1.3a.57.57,0,0,0,.7.4l.8-.3a1.38,1.38,0,0,0,.4-.3,4.22,4.22,0,0,0,.3-1.2,4.14,4.14,0,0,1,1.9-.5c.2.1.5.9.5.9a.52.52,0,0,0,.4.2l.8.2c.1,0,.3,0,.3-.1s0-.3-.1-.3l-.4-.2c-.1,0-.2-.2-.3-.3l-.2-.5s.1-.2.2-.2" transform="translate(-0.9 -1.1)"/><path d="M37.7,16.6a18.15,18.15,0,0,1-2,.1c-.6,0-.6-.6-.5-.6l-2.5.2a.37.37,0,0,0-.4.3c-.1.3-.7,1.4-.7,1.4a1.06,1.06,0,0,0,.3,1.2c.6.6,1.1,1,1.1,1a2,2,0,0,0,.8.1l1-.1c.5,0,.5,1.3.5,1.6s1.4,2.9,1.4,3.2.4.2.6.2h.4a.44.44,0,0,0,.3-.1,11,11,0,0,0,.6-7.6" transform="translate(-0.9 -1.1)"/><path d="M31.4,42.4a1.07,1.07,0,0,0-1,.9V53.5l2-.3V43.3a1,1,0,0,0-1-.9" transform="translate(-0.9 -1.1)"/><path d="M60.6,5.3H73.2V9.6h-8V18H71v4.3H65.3v9.5h8v4.3H60.6Z" transform="translate(-0.9 -1.1)"/><path d="M82.1,5.3h6l5.4,30.9H88.7l-1.1-6.8h-5l-1.1,6.8H77Zm1.2,19.8H87L85.1,12.8Z" transform="translate(-0.9 -1.1)"/><path d="M97.8,5.3h6.5c2.7,0,4.7.7,5.9,2.2s1.8,3.7,1.8,6.8a12.81,12.81,0,0,1-.7,4.8,7,7,0,0,1-2.4,3l3.6,14.2h-4.9l-2.9-12.9h-2.2V36.3H97.9V5.3ZM103.9,19a7.45,7.45,0,0,0,1.8-.2,1.42,1.42,0,0,0,.9-.8,11.64,11.64,0,0,0,.6-1.5,13.61,13.61,0,0,0,.2-2.1,8,8,0,0,0-.3-2.3,3.49,3.49,0,0,0-.7-1.5,1.8,1.8,0,0,0-.9-.6,6.27,6.27,0,0,0-1.6-.2h-1.5v9.3h1.5Z" transform="translate(-0.9 -1.1)"/><path d="M120.7,9.6h-4.9V5.3h14.5V9.6h-5V36.2h-4.6V9.6Z" transform="translate(-0.9 -1.1)"/><path d="M133.9,5.3h4.6V17.9h5.1V5.3h4.6V36.2h-4.6V22.3h-5.1V36.2h-4.6Z" transform="translate(-0.9 -1.1)"/><path d="M151.9,31.9H153a2,2,0,0,0,1.9-1,8.29,8.29,0,0,0,.5-3.7V5.3H160V26.5a22.67,22.67,0,0,1-.1,2.8,12.48,12.48,0,0,1-.2,2.1,7.49,7.49,0,0,1-.4,1.6,13.39,13.39,0,0,1-.6,1.2c-.9,1.4-2.4,2-4.6,2h-2.2Z" transform="translate(-0.9 -1.1)"/><path d="M165.4,5.3H170V25.6a30.29,30.29,0,0,0,.1,3.4,3.23,3.23,0,0,0,.3,1.6,2.34,2.34,0,0,0,2.3,1.7,2.3,2.3,0,0,0,2.4-2.1,33.89,33.89,0,0,0,.2-4.6V5.3h4.6V26.1a25.32,25.32,0,0,1-.1,2.9q-.15,1.2-.3,2.1a4.42,4.42,0,0,1-.6,1.6,5.51,5.51,0,0,1-.9,1.4,5.78,5.78,0,0,1-2.3,1.8,7.65,7.65,0,0,1-3,.6,8.15,8.15,0,0,1-3.1-.6,6.09,6.09,0,0,1-2.4-1.8,5.51,5.51,0,0,1-.9-1.4c-.2-.5-.4-1-.6-1.6s-.2-1.3-.3-2.1-.1-1.8-.1-2.9V5.3Z" transform="translate(-0.9 -1.1)"/><path d="M188.6,27.5q.15,4.8,3.3,4.8a2.58,2.58,0,0,0,2.1-.9,3.74,3.74,0,0,0,.8-2.5,5.37,5.37,0,0,0-1.2-3.3c-.2-.2-.4-.5-.5-.6l-.6-.6-.9-.9c-.4-.4-.9-.8-1.6-1.4a29.38,29.38,0,0,1-2.5-2.5,13.8,13.8,0,0,1-1.6-2.3,10.2,10.2,0,0,1-.9-2.2,9.86,9.86,0,0,1-.3-2.4,8,8,0,0,1,2-5.6A6.93,6.93,0,0,1,192,5c4.1,0,6.4,2.5,7,7.4l-4.5.6a6.78,6.78,0,0,0-.8-2.9,2,2,0,0,0-1.9-.8,2.56,2.56,0,0,0-1.9.8,3.23,3.23,0,0,0-.7,2.2,7.72,7.72,0,0,0,.2,1.5,5.34,5.34,0,0,0,.6,1.4,13.28,13.28,0,0,0,1.2,1.6c.5.6,1.2,1.2,2,2,1.2,1.1,2.2,2.1,3,2.9a9.4,9.4,0,0,1,1.8,2.4,7.32,7.32,0,0,1,.9,2.3,10.07,10.07,0,0,1,.3,2.5,10.73,10.73,0,0,1-.5,3.2,8.74,8.74,0,0,1-1.5,2.5,6.34,6.34,0,0,1-2.3,1.6,7.31,7.31,0,0,1-3,.6,7.79,7.79,0,0,1-3.1-.6,8.07,8.07,0,0,1-2.4-1.7,7.6,7.6,0,0,1-1.6-2.6,9.34,9.34,0,0,1-.6-3.4Z" transform="translate(-0.9 -1.1)"/><path d="M207.5,9.6h-4.9V5.3h14.5V9.6h-5V36.2h-4.6Z" transform="translate(-0.9 -1.1)"/><path d="M220.7,5.3h4.6V36.2h-4.6Z" transform="translate(-0.9 -1.1)"/><path d="M230.4,15.6a29.12,29.12,0,0,1,.1-3.1,7.32,7.32,0,0,1,.3-2.2,4.42,4.42,0,0,1,.6-1.6,11,11,0,0,1,.9-1.4,5.78,5.78,0,0,1,2.3-1.8,7.79,7.79,0,0,1,3.1-.6,7.51,7.51,0,0,1,3.7.9,6,6,0,0,1,2.5,2.5,5.36,5.36,0,0,1,.5,1.1c.1.4.2.7.3,1.2s.1.9.2,1.5v3.6h-4.7V13.3a7.12,7.12,0,0,0-.1-1.6,3.7,3.7,0,0,0-.8-1.8,2.41,2.41,0,0,0-1.7-.7,2.3,2.3,0,0,0-2.4,2.1,33.89,33.89,0,0,0-.2,4.6v9.8a30.29,30.29,0,0,0,.1,3.4,3.23,3.23,0,0,0,.3,1.6,2.34,2.34,0,0,0,2.3,1.7,2.19,2.19,0,0,0,1.7-.7,3.67,3.67,0,0,0,.8-1.9,10.36,10.36,0,0,0,.1-2V25.3H245v3.9a6.05,6.05,0,0,1-.2,1.5c-.1.4-.2.9-.3,1.2a6.12,6.12,0,0,1-.5,1.2,7.19,7.19,0,0,1-2.5,2.7,7.51,7.51,0,0,1-3.7.9,8.15,8.15,0,0,1-3.1-.6,6.09,6.09,0,0,1-2.4-1.8,5.51,5.51,0,0,1-.9-1.4c-.2-.5-.4-1-.6-1.6s-.2-1.3-.3-2.2-.1-1.9-.1-3.1V15.6Z" transform="translate(-0.9 -1.1)"/><path d="M249.7,5.3h12.6V9.6h-8V18H260v4.3h-5.7v9.5h8v4.3H249.7Z" transform="translate(-0.9 -1.1)"/><path d="M63.7,48.6H60.6V42.3h3a1.58,1.58,0,0,1,1.8,1.6,1.49,1.49,0,0,1-.8,1.4,1.43,1.43,0,0,1,1.2,1.5C65.8,48,64.9,48.6,63.7,48.6Zm-.4-3.8c.4,0,.6-.3.6-.7a.53.53,0,0,0-.6-.6H62.2v1.3Zm.3,1.3H62.1v1.4h1.5a.68.68,0,0,0,.7-.7A.63.63,0,0,0,63.6,46.1Z" transform="translate(-0.9 -1.1)"/><path d="M66.8,42.3h4.6v1.3h-3v1.2h2.7v1.3H68.4v1.3h3v1.3H66.8Z" transform="translate(-0.9 -1.1)"/><path d="M75,47.5a1.24,1.24,0,0,0,1.3-1.2h1.4A2.45,2.45,0,0,1,75,48.7a2.68,2.68,0,0,1-2.9-2.9V45A2.68,2.68,0,0,1,75,42.1a2.51,2.51,0,0,1,2.7,2.4H76.3A1.18,1.18,0,0,0,75,43.3c-.9,0-1.3.6-1.3,1.5v1C73.7,46.9,74.1,47.5,75,47.5Z" transform="translate(-0.9 -1.1)"/><path d="M82.2,47.5H79.9l-.4,1.2H78l2.3-6.3h1.6l2.3,6.3H82.7Zm-1.9-1.3h1.5L81,43.7Z" transform="translate(-0.9 -1.1)"/><path d="M88.5,42.3H90v4a2.71,2.71,0,0,1-5.4,0v-4h1.5v4a1.1,1.1,0,1,0,2.2,0v-4Z" transform="translate(-0.9 -1.1)"/><path d="M93.6,48.8c-1.5,0-2.5-.7-2.5-2v-.2h1.5v.1c0,.5.3.9,1.1.9.6,0,1.1-.3,1.1-.7a.55.55,0,0,0-.4-.6l-1.6-.4a1.58,1.58,0,0,1-1.5-1.7c0-1.3.9-2,2.4-2S96,43,96,44.1v.2H94.6v-.1c0-.4-.2-.8-.9-.8-.5,0-.9.2-.9.6a.46.46,0,0,0,.4.5l1.7.5c1,.3,1.4.8,1.4,1.7A2.54,2.54,0,0,1,93.6,48.8Z" transform="translate(-0.9 -1.1)"/><path d="M97.1,42.3h4.6v1.3h-3v1.2h2.7v1.3H98.7v1.3h3v1.3H97.1Z" transform="translate(-0.9 -1.1)"/><path d="M109,42.3v1.3h-1.7v5h-1.5v-5h-1.7V42.3Z" transform="translate(-0.9 -1.1)"/><path d="M113.7,48.6V46.1h-2.2v2.5h-1.6V42.3h1.6v2.4h2.2V42.3h1.6v6.3Z" transform="translate(-0.9 -1.1)"/><path d="M116.5,42.3h4.6v1.3h-3v1.2h2.7v1.3H118v1.3h3v1.3h-4.6V42.3Z" transform="translate(-0.9 -1.1)"/><path d="M124.1,42.3h4.6v1.3h-3v1.2h2.7v1.3h-2.7v1.3h3v1.3h-4.6Z" transform="translate(-0.9 -1.1)"/><path d="M133.5,47.5h-2.3l-.4,1.2h-1.5l2.3-6.3h1.6l2.3,6.3H134Zm-1.9-1.3h1.5l-.8-2.5Z" transform="translate(-0.9 -1.1)"/><path d="M138.8,46.8h-1v1.9h-1.5V42.4h3a2.16,2.16,0,0,1,2.4,2.2,2.1,2.1,0,0,1-1.2,2l1.3,2.1H140Zm.2-3.2h-1.2v2H139a1,1,0,0,0,0-2Z" transform="translate(-0.9 -1.1)"/><path d="M147,42.3v1.3h-1.7v5h-1.5v-5H142V42.3Z" transform="translate(-0.9 -1.1)"/><path d="M151.6,48.6V46.1h-2.2v2.5h-1.6V42.3h1.6v2.4h2.2V42.3h1.5v6.3Z" transform="translate(-0.9 -1.1)"/><path d="M160.3,48.6l-2.4-3.7v3.7h-1.5V42.3h1.5l2.4,3.7V42.3h1.5v6.3Z" transform="translate(-0.9 -1.1)"/><path d="M163,42.3h4.6v1.3h-3v1.2h2.7v1.3h-2.7v1.3h3v1.3H163Z" transform="translate(-0.9 -1.1)"/><path d="M168.6,42.3h4.6v1.3h-3v1.2h2.7v1.3h-2.7v1.3h3v1.3h-4.6Z" transform="translate(-0.9 -1.1)"/><path d="M177,42.3a2.39,2.39,0,0,1,2.6,2.5v1.3a2.34,2.34,0,0,1-2.6,2.5h-2.8V42.3Zm1.1,2.5c0-.8-.4-1.2-1.4-1.2h-.9v3.8h.9c.9,0,1.4-.4,1.4-1.2Z" transform="translate(-0.9 -1.1)"/><path d="M183.1,48.8c-1.5,0-2.5-.7-2.5-2v-.2h1.5v.1c0,.5.3.9,1.1.9.6,0,1.1-.3,1.1-.7a.55.55,0,0,0-.4-.6l-1.6-.4a1.58,1.58,0,0,1-1.5-1.7c0-1.3.9-2,2.4-2s2.3.8,2.3,1.9v.2h-1.4v-.1c0-.4-.2-.8-.9-.8-.5,0-.9.2-.9.6a.46.46,0,0,0,.4.5l1.7.5c1,.3,1.4.8,1.4,1.7A2.54,2.54,0,0,1,183.1,48.8Z" transform="translate(-0.9 -1.1)"/><path d="M192.4,47.5h-2.3l-.4,1.2h-1.5l2.3-6.3h1.6l2.3,6.3h-1.6Zm-1.9-1.3H192l-.8-2.5Z" transform="translate(-0.9 -1.1)"/><path d="M200.9,44.5a1.06,1.06,0,0,0-1.2-1c-.9,0-1.3.5-1.3,1.5v1c0,.9.4,1.6,1.3,1.6.7,0,1.2-.4,1.2-1h-1.2V45.3h2.7v.9a2.58,2.58,0,0,1-2.8,2.6,2.62,2.62,0,0,1-2.8-2.8v-.9a2.58,2.58,0,0,1,2.8-2.8c1.7,0,2.7,1,2.7,2.3h-1.4Z" transform="translate(-0.9 -1.1)"/><path d="M206.3,48.8a2.68,2.68,0,0,1-2.9-2.9v-.8a2.73,2.73,0,0,1,2.9-2.9,2.68,2.68,0,0,1,2.9,2.9v.8A2.73,2.73,0,0,1,206.3,48.8Zm0-5.3c-.9,0-1.3.6-1.3,1.5v1c0,.9.4,1.5,1.3,1.5s1.3-.6,1.3-1.5V45C207.6,44.1,207.2,43.5,206.3,43.5Z" transform="translate(-0.9 -1.1)"/><path d="M212.9,48.8a2.68,2.68,0,0,1-2.9-2.9v-.8a2.73,2.73,0,0,1,2.9-2.9,2.68,2.68,0,0,1,2.9,2.9v.8A2.73,2.73,0,0,1,212.9,48.8Zm0-5.3c-.9,0-1.3.6-1.3,1.5v1c0,.9.4,1.5,1.3,1.5s1.3-.6,1.3-1.5V45A1.23,1.23,0,0,0,212.9,43.5Z" transform="translate(-0.9 -1.1)"/><path d="M219.6,42.3a2.39,2.39,0,0,1,2.6,2.5v1.3a2.34,2.34,0,0,1-2.6,2.5h-2.8V42.3Zm1.1,2.5c0-.8-.4-1.2-1.4-1.2h-.9v3.8h.9c.9,0,1.4-.4,1.4-1.2Z" transform="translate(-0.9 -1.1)"/><path d="M226.9,42.3v5h2.8v1.3h-4.3V42.3Z" transform="translate(-0.9 -1.1)"/><path d="M234.4,47.5h-2.3l-.4,1.2h-1.5l2.3-6.3h1.6l2.3,6.3h-1.6Zm-1.9-1.3H234l-.8-2.5Z" transform="translate(-0.9 -1.1)"/><path d="M242.2,46.5l.8-4.1h1.5L243,48.7h-1.4l-1.2-4.4-1.2,4.4h-1.4l-1.5-6.3h1.5l.8,4.1,1.2-4.1h1.4Z" transform="translate(-0.9 -1.1)"/><path d="M248.4,46.4v2.2h-1.6V46.4l-2.1-4.1h1.7l1.2,2.6,1.2-2.6h1.7Z" transform="translate(-0.9 -1.1)"/><path d="M251.2,42.3h4.6v1.3h-3v1.2h2.8v1.3h-2.8v1.3h3v1.3h-4.6Z" transform="translate(-0.9 -1.1)"/><path d="M259.4,46.8h-1v1.9h-1.5V42.4h3a2.16,2.16,0,0,1,2.4,2.2,2.1,2.1,0,0,1-1.2,2l1.3,2.1h-1.8Zm.2-3.2h-1.2v2h1.2a.94.94,0,0,0,1-1A.9.9,0,0,0,259.6,43.6Z" transform="translate(-0.9 -1.1)"/></svg>