<svg width="192" height="37" viewBox="0 0 192 37" fill="none" xmlns="http://www.w3.org/2000/svg">
<path d="M191.224 21.5386C190.71 20.3774 189.98 19.3902 189.034 18.5771C188.089 17.7639 186.935 17.0832 185.575 16.5365C184.214 15.9882 182.688 15.4831 180.995 15.018C179.768 14.6869 178.688 14.3881 177.76 14.1216C176.831 13.8567 176.059 13.5657 175.445 13.25C174.83 12.9342 174.367 12.5785 174.051 12.1796C173.735 11.7807 173.578 11.2833 173.578 10.6857C173.578 8.7283 175.038 7.74881 177.958 7.74881C179.019 7.74881 180.082 7.8982 181.145 8.19697C182.206 8.49575 183.185 8.84381 184.082 9.24269C184.978 9.64157 185.725 10.022 186.321 10.387C186.918 10.752 187.266 11.0015 187.367 11.1339L190.95 4.36373C190.154 3.90017 189.282 3.43506 188.337 2.96996C187.391 2.50486 186.37 2.09058 185.275 1.72558C184.18 1.36058 183.036 1.06181 181.841 0.829257C180.646 0.598246 179.435 0.481201 178.208 0.481201C176.449 0.481201 174.781 0.730692 173.206 1.22814C171.629 1.72558 170.244 2.46482 169.049 3.44276C167.854 4.42225 166.908 5.62505 166.212 7.05116C165.516 8.47881 165.166 10.1205 165.166 11.9794C165.166 13.3069 165.357 14.4682 165.739 15.463C166.12 16.4579 166.702 17.3389 167.481 18.1012C168.26 18.8651 169.248 19.5365 170.443 20.1172C171.638 20.6978 173.047 21.2368 174.673 21.7342C175.901 22.0992 177.037 22.4303 178.083 22.7291C179.129 23.0279 180.033 23.3513 180.795 23.6994C181.557 24.0474 182.155 24.4386 182.588 24.8698C183.019 25.301 183.235 25.8493 183.235 26.5131C183.235 28.2718 181.792 29.1512 178.904 29.1512C177.542 29.1512 176.2 28.9695 174.872 28.603C173.544 28.238 172.342 27.8237 171.264 27.3586C170.186 26.895 169.28 26.4299 168.551 25.9648C167.822 25.4997 167.39 25.1855 167.258 25.0192L163.674 32.1374C164.703 32.8336 165.822 33.448 167.035 33.9794C168.245 34.5107 169.499 34.9666 170.792 35.3485C172.086 35.7304 173.414 36.02 174.775 36.2202C176.135 36.4188 177.462 36.5189 178.758 36.5189C180.45 36.5189 182.093 36.328 183.686 35.946C185.278 35.5656 186.689 34.9512 187.916 34.1041C189.144 33.2586 190.131 32.1467 190.878 30.7683C191.625 29.3915 191.998 27.7066 191.998 25.7169C191.996 24.0936 191.739 22.6999 191.224 21.5386Z" fill="white"/>
<path d="M159.279 0.781006H151.115V36.1226H159.279V0.781006Z" fill="white"/>
<path d="M137.212 18.8492C137.212 20.1428 137.087 21.4134 136.84 22.6578C136.59 23.9021 136.168 25.0064 135.571 25.9674C134.973 26.9299 134.194 27.7015 133.231 28.2821C132.269 28.8627 131.09 29.1538 129.697 29.1538C128.303 29.1538 127.132 28.872 126.187 28.3083C125.241 27.7446 124.47 26.9808 123.872 26.0182C123.275 25.0557 122.843 23.9607 122.578 22.7332C122.312 21.5058 122.18 20.2121 122.18 18.8507V0.781006H114.016V18.8492C114.016 21.1731 114.305 23.3955 114.887 25.5192C115.468 27.643 116.381 29.5096 117.626 31.1189C118.87 32.7283 120.487 34.0143 122.478 34.9768C124.47 35.9394 126.875 36.4199 129.695 36.4199C132.415 36.4199 134.764 35.964 136.738 35.0507C138.712 34.139 140.339 32.8854 141.615 31.293C142.892 29.7005 143.838 27.8417 144.452 25.7179C145.065 23.5941 145.373 21.3056 145.373 18.8492V0.781006H137.209V18.8492H137.212Z" fill="white"/>
<path d="M108.676 25.0227C109.473 22.9651 109.871 20.809 109.871 18.5513C109.871 16.3289 109.456 14.139 108.627 11.9813C107.797 9.82521 106.619 7.90011 105.093 6.20757C103.566 4.51503 101.724 3.1459 99.5668 2.10173C97.4092 1.05602 95.0205 0.533936 92.3993 0.533936C89.8443 0.533936 87.488 1.02368 85.3304 2.00163C83.1727 2.98111 81.3062 4.29942 79.7307 5.95808C78.1536 7.61828 76.9262 9.52489 76.0468 11.6825C75.1674 13.8402 74.7285 16.0794 74.7285 18.4019C74.7285 20.692 75.152 22.9158 75.9975 25.0719C76.843 27.2296 78.0304 29.1454 79.5566 30.821C81.0829 32.4966 82.9248 33.8411 85.0824 34.853C87.2385 35.8663 89.6287 36.3715 92.2499 36.3715C93.8424 36.3715 95.3609 36.1728 96.8039 35.7739C98.247 35.375 99.5992 34.8283 100.861 34.1307L102.702 36.122H110.367L105.29 30.5469C106.751 28.9221 107.88 27.0802 108.676 25.0227ZM101.161 21.6376C100.894 22.7002 100.497 23.6951 99.9657 24.6238L97.7757 22.1843H90.1108L95.786 28.4555C94.7911 28.8867 93.6283 29.1023 92.3023 29.1023C90.8084 29.1023 89.4809 28.8035 88.3197 28.206C87.1569 27.6084 86.1867 26.8215 85.4074 25.842C84.6266 24.864 84.0383 23.7352 83.6409 22.4569C83.242 21.1802 83.0434 19.8603 83.0434 18.5004C83.0434 17.1729 83.2343 15.8715 83.6163 14.5933C83.9982 13.3166 84.5788 12.1707 85.3581 11.1589C86.1374 10.1471 87.0999 9.33392 88.2457 8.71943C89.39 8.10494 90.7422 7.79847 92.3023 7.79847C93.7962 7.79847 95.1145 8.09724 96.2588 8.69479C97.403 9.29234 98.3748 10.0809 99.171 11.0588C99.9673 12.0383 100.565 13.1672 100.964 14.4439C101.363 15.7222 101.561 17.0405 101.561 18.4003C101.558 19.4969 101.426 20.5765 101.161 21.6376Z" fill="white"/>
<path d="M72.3188 28.9538H55.6444V21.4383H69.5821V14.8175H55.6444V7.94876H71.8722V0.78125H47.4805V36.1213H72.3188V28.9538Z" fill="white"/>
<path d="M0 25.6239V36.1334L18.0959 23.6958L36.1918 36.1334V25.6239L18.0959 13.1863L0 25.6239Z" fill="#40CE48"/>
<path d="M36.1912 11.2846V0.775146L20.832 11.3308L28.4785 16.5856L36.1912 11.2846Z" fill="#FFDD1C"/>
<path d="M0 0.775146V11.2846L7.71269 16.5856L15.3576 11.3308L0 0.775146Z" fill="#39D7FA"/>
</svg>
