<svg id="Layer_1" data-name="Layer 1" xmlns="http://www.w3.org/2000/svg" viewBox="0 0 790.77 451.9"><defs><style>.cls-1{fill:#fff;}</style></defs><path class="cls-1" d="M0,99.56l55-7.81v34.44l-29.55,3.07v16.92l14.63-1.25v27.16l-14.63.83v50.47L0,223.43Zm103.21-10.7q6.86,4.48,11.93,13.39a80,80,0,0,1,8,22,130.26,130.26,0,0,1,2.93,28.53,135.66,135.66,0,0,1-2.93,28.92,91,91,0,0,1-8,23,46,46,0,0,1-11.93,15A22.92,22.92,0,0,1,88.75,225a22.07,22.07,0,0,1-14.06-5.21,42.63,42.63,0,0,1-11-14.16,84.22,84.22,0,0,1-7.15-21.31,131.18,131.18,0,0,1-2.56-26.75,136.16,136.16,0,0,1,2.56-27.08,94.89,94.89,0,0,1,7.15-22.27,51.56,51.56,0,0,1,11-15.65,25.43,25.43,0,0,1,14.06-7.1A20.66,20.66,0,0,1,103.21,88.86ZM81.62,141.44q-2.84,5.75-2.83,14.47T81.62,170q2.85,5.38,7,5.19t7.23-5.85q2.93-5.67,2.93-14.77c0-5.93-1-10.7-2.93-14.28s-4.36-5.22-7.23-5S83.52,137.6,81.62,141.44ZM160,223.15l-29.72,0V81.06l49.54-7c7.84-1.11,14.31,1.28,19.34,7.23s7.64,16.23,7.64,30.64q0,14-4,23.68a36,36,0,0,1-11.46,14.65L209.53,223l-33.46.06L163,165.68l-2.95.17Zm11.26-111.68a5.81,5.81,0,0,0-5-1.88l-6.24.68v23.61l6.24-.54a7.34,7.34,0,0,0,5-2.76q2.16-2.52,2.16-9.72C173.45,116.07,172.73,112.93,171.29,111.47Zm145.83,9.19.75-.07,10.76-67.68,36.71-5.21L330.16,222.85l-41.3.07-11.2-74-.7,0-11,74-32.2.06L205.55,70.38l39-5.53,12.18,63.33.67-.06,8.19-66.26,39.66-5.63Zm87.76,64.65-29.62,1-7.48,36.51-29.86.05L373,46.61l49.84-7.07,42.61,183.07-52.63.09ZM381,158l17.9-1-8.09-37.53-1.85.16Zm140.64,64.49L472,222.6v-190l83.25-11.82c13.38-1.92,24.43.93,33.07,8.77s13.15,21.75,13.15,41.39q0,19.05-6.9,32.42t-18,20.22l33.28,98.8-59,.11-24.13-77.34-5,.28Zm19-150.81a11.17,11.17,0,0,0-8.5-2.33l-10.53,1.16v31.81l10.53-.93a13.73,13.73,0,0,0,8.5-3.89q3.65-3.47,3.65-13.2T540.68,71.7Zm241,86.39q-9,22.85-22.49,37.35a74,74,0,0,1-30.62,20.94,104.55,104.55,0,0,1-35.5,5.83l-80.61.14V12.62L693,1.18A100.88,100.88,0,0,1,728.56,2a62.23,62.23,0,0,1,30.62,16.07q13.47,12.84,22.49,34.36,9.08,21.68,9.1,52Q790.77,135,781.67,158.09Zm-93.92,6.55a19.69,19.69,0,0,0,10.61-3.11c2.75-1.92,5-5.35,6.83-10.32a66.86,66.86,0,0,0,3.55-15q1.11-8.53,1.11-25.78T708.74,85a65.93,65.93,0,0,0-3.55-14.65q-2.7-6.72-6.83-9.14t-10.61-1.7l-9.51,1V165ZM14.64,267.05l-.55,0v81.91L0,346.91V228.72l31.05.05,3.79,24.29.58,0L39,228.78l34.69.06V357.52L48.2,353.79V268.66l-.6,0L36.41,352.15l-11.14-1.6Zm100.72,68.73-18-2-4.55,26.52-17.64-2.54L97.92,228.88l28.36.05,25.11,139.78L120.1,364.2Zm-14.32-23,10.88.93L107,285l-1.12-.07ZM176.13,229l33.4.05V333.2q0,19.69-8.45,31.54c-5.57,7.8-13.2,11-22.83,9.71a25,25,0,0,1-14-6.5,40.3,40.3,0,0,1-9.51-14,84.11,84.11,0,0,1-5.48-20,157.8,157.8,0,0,1-1.8-24.63l23.42,1.81v9.71a17.59,17.59,0,0,0,.77,6.24c.52,1.2,1.15,1.83,1.88,1.9s1.45-.44,1.89-1.55a18.75,18.75,0,0,0,.67-6.14Zm99.67,4.16a53.91,53.91,0,0,1,15.38,17,94.88,94.88,0,0,1,10.38,26.09A135.68,135.68,0,0,1,305.35,309a129.42,129.42,0,0,1-3.79,32.26q-3.78,14.63-10.38,24.68a44.3,44.3,0,0,1-15.38,14.86,29.16,29.16,0,0,1-18.56,3.49,35,35,0,0,1-18-8.3,60,60,0,0,1-14.06-17.8,99.38,99.38,0,0,1-9.09-25.09,136.47,136.47,0,0,1-3.24-30.38,130.7,130.7,0,0,1,3.24-29.95,87.21,87.21,0,0,1,9.09-23.86A49.34,49.34,0,0,1,239.27,233a30.64,30.64,0,0,1,18-5.86A32.06,32.06,0,0,1,275.8,233.17ZM248.12,289q-3.63,6-3.62,15.81t3.62,16.3c2.43,4.35,5.42,6.68,9,7s6.77-1.47,9.26-5.39,3.76-9.33,3.76-16.17q0-10-3.76-16.57t-9.26-6.76C253.54,283.09,250.55,285,248.12,289ZM347.75,397,309,391.4V229.22l64.8.11c10.37,0,18.93,3.84,25.61,11.54s10.16,20,10.16,36.67q0,16.14-5.33,26.64t-13.93,15L416,406.81l-45.62-6.57-18.78-68.66-3.87-.35Zm14.8-126.53a9.47,9.47,0,0,0-6.61-3l-8.18-.29V294l8.18.47a8.91,8.91,0,0,0,6.61-2.26q2.82-2.49,2.83-10.66T362.55,270.45Zm55.85-41,47.07.08V413.81l-47.07-6.65Zm53.56.09,137.83.22v53l-45.49-1.72V428.16l-54.82-7.92V278.82L472,277.33Zm257.2,149.56V451.9l-66.27-9.54v-70L612.45,229.72l68.1.11,25.15,71.73.93.05,28.51-71.69,55.27.12Z"/></svg>