
<svg id="Layer_1" viewBox="0 0 470 350" version="1.1" width="470" height="350" xmlns="http://www.w3.org/2000/svg">
  
  <defs id="defs1">
    <style id="style1">.cls-1{fill:#1565ad;}.cls-2{fill:#26a9e1;}.cls-3{fill:#fab818;}.cls-4{fill:#9e2064;}.cls-5{fill:#8cc540;}.cls-6{fill:#e95f27;}.cls-7{fill:#f68b21;}.cls-8{fill:#fff;}</style>
  </defs>
  <path class="cls-1" d="m 255.72668,132.30301 -9.33,-34.719999 v -0.2 c 0,-0.31 0.19,-0.47 0.56,-0.47 h 5 a 0.69,0.69 0 0 1 0.72,0.52 l 5.84,23.379999 c 0,0.11 0.09,0.16 0.16,0.16 0.07,0 0.12,-0.05 0.15,-0.16 l 5.59,-23.379999 a 0.66,0.66 0 0 1 0.67,-0.52 h 4.9 a 0.68,0.68 0 0 1 0.72,0.52 l 5.95,23.439999 q 0,0.15 0.15,0.15 c 0.07,0 0.12,0 0.16,-0.15 l 5.74,-23.439999 a 0.68,0.68 0 0 1 0.72,-0.52 h 4.77 c 0.48,0 0.67,0.23 0.56,0.67 l -8.87,34.719999 a 0.67,0.67 0 0 1 -0.72,0.52 h -4.77 a 0.68,0.68 0 0 1 -0.72,-0.52 l -6,-24.46 a 0.24,0.24 0 0 0 -0.15,-0.18 q -0.1,0 -0.15,0.18 l -5.75,24.46 a 0.63,0.63 0 0 1 -0.66,0.52 h -4.52 a 0.68,0.68 0 0 1 -0.72,-0.52 z" id="path1" style="fill:#ffffff" />
  <path class="cls-1" d="m 295.12668,131.17301 a 10.83,10.83 0 0 1 -4.08,-5.69 19.35,19.35 0 0 1 -0.87,-5.85 19.07,19.07 0 0 1 0.82,-5.84 10.54,10.54 0 0 1 4.1,-5.59 12.1,12.1 0 0 1 7,-2 11.35,11.35 0 0 1 6.74,2 10.68,10.68 0 0 1 4,5.54 16.77,16.77 0 0 1 0.92,5.84 18.44,18.44 0 0 1 -0.87,5.85 11.09,11.09 0 0 1 -4,5.72 11.37,11.37 0 0 1 -6.82,2.08 11.7,11.7 0 0 1 -6.94,-2.06 z m 10.21,-4.19 a 6.11,6.11 0 0 0 2,-3 15.15,15.15 0 0 0 0.51,-4.3 14.25,14.25 0 0 0 -0.51,-4.31 5.61,5.61 0 0 0 -1.95,-3 5.43,5.43 0 0 0 -3.38,-1 5.3,5.3 0 0 0 -3.29,1 5.85,5.85 0 0 0 -2,3 15.92,15.92 0 0 0 -0.51,4.31 15.84,15.84 0 0 0 0.51,4.3 5.7,5.7 0 0 0 2,3 5.43,5.43 0 0 0 3.41,1.08 5.1,5.1 0 0 0 3.21,-1.08 z" id="path2" style="fill:#ffffff" />
  <path class="cls-1" d="m 334.17668,106.98301 a 0.65,0.65 0 0 1 0.31,0.77 l -0.88,4.61 c 0,0.41 -0.27,0.53 -0.71,0.36 a 5.74,5.74 0 0 0 -1.8,-0.26 6.51,6.51 0 0 0 -1,0.06 5.24,5.24 0 0 0 -3.61,1.46 4.9,4.9 0 0 0 -1.44,3.67 v 14.55 a 0.61,0.61 0 0 1 -0.62,0.62 h -4.71 a 0.59,0.59 0 0 1 -0.44,-0.18 0.6,0.6 0 0 1 -0.18,-0.44 v -25 a 0.58,0.58 0 0 1 0.18,-0.43 0.59,0.59 0 0 1 0.44,-0.18 h 4.71 a 0.6,0.6 0 0 1 0.44,0.18 0.58,0.58 0 0 1 0.18,0.43 v 2.31 c 0,0.14 0,0.22 0.08,0.23 0.08,0.01 0.11,0 0.18,-0.13 a 6.76,6.76 0 0 1 6,-3.33 5.88,5.88 0 0 1 2.87,0.7 z" id="path3" style="fill:#ffffff" />
  <path class="cls-1" d="m 338.42668,132.64301 a 0.57,0.57 0 0 1 -0.18,-0.44 V 97.533011 a 0.61,0.61 0 0 1 0.61,-0.62 h 4.72 a 0.62,0.62 0 0 1 0.44,0.18 0.6,0.6 0 0 1 0.17,0.44 v 34.669999 a 0.6,0.6 0 0 1 -0.17,0.44 0.62,0.62 0 0 1 -0.44,0.18 h -4.72 a 0.57,0.57 0 0 1 -0.43,-0.18 z" id="path4" style="fill:#ffffff" />
  <path class="cls-1" d="m 366.62668,97.093011 a 0.58,0.58 0 0 1 0.43,-0.18 h 4.72 a 0.61,0.61 0 0 1 0.62,0.62 v 34.669999 a 0.61,0.61 0 0 1 -0.62,0.62 h -4.72 a 0.58,0.58 0 0 1 -0.43,-0.18 0.6,0.6 0 0 1 -0.18,-0.44 v -1.54 a 0.21,0.21 0 0 0 -0.1,-0.2 c -0.07,0 -0.14,0 -0.21,0.1 a 7.35,7.35 0 0 1 -5.9,2.67 9.92,9.92 0 0 1 -6.15,-1.9 10.61,10.61 0 0 1 -3.64,-5.28 20.82,20.82 0 0 1 -0.93,-6.42 19.89,19.89 0 0 1 0.87,-6.25 10.6,10.6 0 0 1 3.65,-5.28 10.11,10.11 0 0 1 6.3,-1.9 7.37,7.37 0 0 1 5.8,2.56 0.21,0.21 0 0 0 0.21,0.08 c 0.06,0 0.1,-0.08 0.1,-0.18 V 97.533011 a 0.6,0.6 0 0 1 0.18,-0.44 z m -0.23,22.599999 a 11.82,11.82 0 0 0 -1.29,-6.11 4.33,4.33 0 0 0 -3.89,-2.25 4.71,4.71 0 0 0 -4.11,2.15 11.06,11.06 0 0 0 -1.53,6.26 12.5,12.5 0 0 0 1.23,5.9 4.71,4.71 0 0 0 4.36,2.46 4.48,4.48 0 0 0 4.05,-2.46 12.41,12.41 0 0 0 1.18,-5.95 z" id="path5" style="fill:#ffffff" />
  <path class="cls-1" d="m 260.19668,180.06301 a 10.94,10.94 0 0 1 -4.52,-4.23 12.27,12.27 0 0 1 -1.59,-6.31 v -12.67 a 12.3,12.3 0 0 1 1.59,-6.31 10.74,10.74 0 0 1 4.52,-4.2 14.71,14.71 0 0 1 6.79,-1.49 15,15 0 0 1 6.71,1.44 10.54,10.54 0 0 1 4.52,4 11.4,11.4 0 0 1 1.59,6 0.6,0.6 0 0 1 -0.18,0.44 0.6,0.6 0 0 1 -0.44,0.17 l -4.72,0.26 c -0.41,0 -0.61,-0.19 -0.61,-0.56 a 6.59,6.59 0 0 0 -1.87,-4.78 6.82,6.82 0 0 0 -5,-1.84 6.89,6.89 0 0 0 -5,1.84 6.54,6.54 0 0 0 -1.9,4.88 v 13.08 a 6.45,6.45 0 0 0 1.9,4.82 7.79,7.79 0 0 0 10,0 6.47,6.47 0 0 0 1.87,-4.84 c 0,-0.38 0.2,-0.57 0.61,-0.57 l 4.72,0.21 a 0.67,0.67 0 0 1 0.44,0.15 0.45,0.45 0 0 1 0.18,0.36 11.67,11.67 0 0 1 -1.59,6.13 10.6,10.6 0 0 1 -4.52,4.08 15.08,15.08 0 0 1 -6.71,1.43 14.47,14.47 0 0 1 -6.79,-1.49 z" id="path6" style="fill:#ffffff" />
  <path class="cls-1" d="m 307.25668,167.98301 v 1.59 a 0.55,0.55 0 0 1 -0.62,0.62 h -16.1 c -0.17,0 -0.26,0.08 -0.26,0.25 a 7.43,7.43 0 0 0 0.46,2.31 q 1.23,3.69 6,3.74 a 6.45,6.45 0 0 0 5.54,-2.87 0.63,0.63 0 0 1 0.52,-0.31 0.5,0.5 0 0 1 0.35,0.16 l 3.18,2.61 a 0.55,0.55 0 0 1 0.16,0.82 10.43,10.43 0 0 1 -4.23,3.49 13.75,13.75 0 0 1 -5.88,1.23 12.27,12.27 0 0 1 -6.79,-1.79 10.32,10.32 0 0 1 -4.08,-5 20.07,20.07 0 0 1 -1.18,-7.69 15.59,15.59 0 0 1 0.62,-4.82 10.22,10.22 0 0 1 3.87,-5.67 11.34,11.34 0 0 1 6.85,-2.08 q 10.09,0 11.38,10.57 a 17.8,17.8 0 0 1 0.21,2.84 z m -14.75,-7.36 a 5,5 0 0 0 -1.77,2.64 9.26,9.26 0 0 0 -0.41,2.26 c -0.07,0.17 0,0.26 0.21,0.26 h 10.45 a 0.23,0.23 0 0 0 0.26,-0.26 10.16,10.16 0 0 0 -0.31,-2 5,5 0 0 0 -1.82,-2.87 5.49,5.49 0 0 0 -3.41,-1 5.11,5.11 0 0 0 -3.2,0.97 z" id="path7" style="fill:#ffffff" />
  <path class="cls-1" d="m 331.61668,156.98301 a 9,9 0 0 1 2.49,6.72 v 16.83 a 0.58,0.58 0 0 1 -0.18,0.43 0.6,0.6 0 0 1 -0.44,0.18 h -4.72 a 0.57,0.57 0 0 1 -0.43,-0.18 0.58,0.58 0 0 1 -0.18,-0.43 v -15.55 a 5.46,5.46 0 0 0 -1.34,-3.82 4.58,4.58 0 0 0 -3.54,-1.46 4.66,4.66 0 0 0 -3.56,1.44 5.27,5.27 0 0 0 -1.36,3.79 v 15.65 a 0.58,0.58 0 0 1 -0.18,0.43 0.59,0.59 0 0 1 -0.44,0.18 h -4.75 a 0.59,0.59 0 0 1 -0.44,-0.18 0.58,0.58 0 0 1 -0.18,-0.43 v -25 a 0.6,0.6 0 0 1 0.18,-0.44 0.59,0.59 0 0 1 0.44,-0.16 h 4.71 a 0.59,0.59 0 0 1 0.44,0.18 0.6,0.6 0 0 1 0.18,0.44 v 1.64 a 0.22,0.22 0 0 0 0.1,0.21 c 0.07,0 0.12,0 0.16,-0.11 1.4,-1.84 3.52,-2.77 6.36,-2.77 a 9,9 0 0 1 6.68,2.41 z" id="path8" style="fill:#ffffff" />
  <path class="cls-1" d="m 353.25668,159.59301 a 0.59,0.59 0 0 1 -0.44,0.18 h -5.23 c -0.17,0 -0.25,0.09 -0.25,0.26 v 12.36 a 4,4 0 0 0 0.84,2.82 3.63,3.63 0 0 0 2.7,0.87 h 1.53 a 0.59,0.59 0 0 1 0.44,0.18 0.6,0.6 0 0 1 0.18,0.44 v 3.85 c 0,0.37 -0.21,0.59 -0.62,0.66 h -2.66 q -4,0 -6.05,-1.38 c -1.34,-0.92 -2,-2.67 -2.06,-5.23 v -14.57 c 0,-0.17 -0.08,-0.26 -0.25,-0.26 h -2.93 a 0.58,0.58 0 0 1 -0.43,-0.18 0.57,0.57 0 0 1 -0.18,-0.43 v -3.59 a 0.6,0.6 0 0 1 0.18,-0.44 0.58,0.58 0 0 1 0.43,-0.18 h 2.93 a 0.22,0.22 0 0 0 0.25,-0.25 v -6 a 0.61,0.61 0 0 1 0.62,-0.62 h 4.46 a 0.61,0.61 0 0 1 0.62,0.62 v 6 a 0.22,0.22 0 0 0 0.25,0.25 h 5.23 a 0.59,0.59 0 0 1 0.44,0.18 0.6,0.6 0 0 1 0.18,0.44 v 3.59 a 0.57,0.57 0 0 1 -0.18,0.43 z" id="path9" style="fill:#ffffff" />
  <path class="cls-1" d="m 372.98668,155.31301 a 0.64,0.64 0 0 1 0.31,0.77 l -0.87,4.62 q -0.06,0.61 -0.72,0.36 a 5.7,5.7 0 0 0 -1.8,-0.26 8.57,8.57 0 0 0 -1,0.05 5.3,5.3 0 0 0 -3.59,1.51 4.93,4.93 0 0 0 -1.44,3.67 v 14.52 a 0.61,0.61 0 0 1 -0.61,0.61 h -4.72 a 0.6,0.6 0 0 1 -0.44,-0.18 0.58,0.58 0 0 1 -0.18,-0.43 v -25 a 0.61,0.61 0 0 1 0.62,-0.62 h 4.72 a 0.58,0.58 0 0 1 0.43,0.18 0.6,0.6 0 0 1 0.18,0.44 v 2.33 c 0,0.13 0,0.21 0.08,0.23 0.08,0.02 0.11,0 0.18,-0.13 a 6.77,6.77 0 0 1 6,-3.33 6,6 0 0 1 2.85,0.66 z" id="path10" style="fill:#ffffff" />
  <path class="cls-1" d="m 392.73668,155.67301 a 9,9 0 0 1 3.8,3.1 7.85,7.85 0 0 1 1.33,4.49 v 17.29 a 0.61,0.61 0 0 1 -0.61,0.61 h -4.72 a 0.59,0.59 0 0 1 -0.44,-0.18 0.58,0.58 0 0 1 -0.18,-0.43 v -1.65 c 0,-0.1 0,-0.16 -0.1,-0.17 a 0.21,0.21 0 0 0 -0.21,0.07 q -2.5,2.78 -7.28,2.77 a 9.94,9.94 0 0 1 -6.33,-2 6.9,6.9 0 0 1 -2.49,-5.79 7.51,7.51 0 0 1 2.79,-6.23 c 1.87,-1.49 4.49,-2.24 7.88,-2.24 h 5.48 c 0.18,0 0.26,-0.08 0.26,-0.25 v -1.18 a 4,4 0 0 0 -1.18,-3.11 5.05,5.05 0 0 0 -3.54,-1.1 6.29,6.29 0 0 0 -3.15,0.69 3,3 0 0 0 -1.51,1.93 q -0.17,0.61 -0.72,0.51 l -5,-0.62 a 1.11,1.11 0 0 1 -0.43,-0.17 0.3,0.3 0 0 1 -0.13,-0.34 7.19,7.19 0 0 1 3.36,-5.13 12.91,12.91 0 0 1 7.41,-2 13.56,13.56 0 0 1 5.71,1.13 z m -2.61,19.85 a 4.07,4.07 0 0 0 1.79,-3.39 v -2.41 c 0,-0.17 -0.08,-0.25 -0.26,-0.25 h -4.3 a 7.8,7.8 0 0 0 -4.29,1 3.31,3.31 0 0 0 -1.56,2.93 3,3 0 0 0 1.2,2.54 5.14,5.14 0 0 0 3.11,0.89 7,7 0 0 0 4.31,-1.31 z" id="path11" style="fill:#ffffff" />
  <path class="cls-1" d="m 404.03668,180.98301 a 0.58,0.58 0 0 1 -0.18,-0.43 v -34.67 a 0.61,0.61 0 0 1 0.62,-0.62 h 4.71 a 0.61,0.61 0 0 1 0.62,0.62 v 34.67 a 0.58,0.58 0 0 1 -0.18,0.43 0.59,0.59 0 0 1 -0.44,0.18 h -4.71 a 0.59,0.59 0 0 1 -0.44,-0.18 z" id="path12" style="fill:#ffffff" />
  <path class="cls-1" d="m 255.13668,229.33301 a 0.6,0.6 0 0 1 -0.17,-0.44 v -34.67 a 0.61,0.61 0 0 1 0.17,-0.44 0.64,0.64 0 0 1 0.44,-0.17 h 4.72 a 0.61,0.61 0 0 1 0.43,0.17 0.62,0.62 0 0 1 0.18,0.44 v 15.34 a 0.2,0.2 0 0 0 0.11,0.2 c 0.07,0 0.13,0 0.2,-0.05 l 13.34,-15.73 a 1,1 0 0 1 0.77,-0.35 h 5.33 c 0.34,0 0.51,0.12 0.51,0.35 a 0.86,0.86 0 0 1 -0.15,0.41 l -11.75,14.42 a 0.3,0.3 0 0 0 -0.05,0.36 l 12.62,19.64 a 1.67,1.67 0 0 1 0.1,0.36 q 0,0.36 -0.51,0.36 h -5.39 a 0.81,0.81 0 0 1 -0.71,-0.41 l -10.16,-15.8 c -0.14,-0.21 -0.26,-0.22 -0.36,0 l -3.82,4.34 a 0.85,0.85 0 0 0 -0.11,0.36 v 10.87 a 0.6,0.6 0 0 1 -0.18,0.44 0.58,0.58 0 0 1 -0.43,0.18 h -4.72 a 0.6,0.6 0 0 1 -0.41,-0.18 z" id="path13" style="fill:#ffffff" />
  <path class="cls-1" d="m 286.68668,198.68301 a 3.5,3.5 0 0 1 -1,-2.61 3.7,3.7 0 1 1 3.64,3.64 3.5,3.5 0 0 1 -2.64,-1.03 z m -0.29,30.65 a 0.6,0.6 0 0 1 -0.18,-0.44 v -25 a 0.58,0.58 0 0 1 0.18,-0.43 0.6,0.6 0 0 1 0.44,-0.18 h 4.72 a 0.61,0.61 0 0 1 0.61,0.61 v 25 a 0.6,0.6 0 0 1 -0.18,0.44 0.58,0.58 0 0 1 -0.43,0.18 h -4.72 a 0.6,0.6 0 0 1 -0.44,-0.18 z" id="path14" style="fill:#ffffff" />
  <path class="cls-1" d="m 311.90668,207.98301 a 0.58,0.58 0 0 1 -0.43,0.18 h -5.23 a 0.23,0.23 0 0 0 -0.26,0.26 v 12.36 a 3.92,3.92 0 0 0 0.85,2.82 3.61,3.61 0 0 0 2.69,0.87 h 1.54 a 0.61,0.61 0 0 1 0.61,0.61 v 3.85 a 0.63,0.63 0 0 1 -0.61,0.67 h -2.67 q -4.05,0 -6.05,-1.39 c -1.33,-0.92 -2,-2.66 -2.05,-5.23 v -14.6 a 0.23,0.23 0 0 0 -0.26,-0.26 h -2.92 a 0.6,0.6 0 0 1 -0.44,-0.18 0.59,0.59 0 0 1 -0.18,-0.44 v -3.59 a 0.58,0.58 0 0 1 0.18,-0.43 0.6,0.6 0 0 1 0.44,-0.18 h 2.92 a 0.23,0.23 0 0 0 0.26,-0.26 v -6 a 0.61,0.61 0 0 1 0.61,-0.61 h 4.47 a 0.61,0.61 0 0 1 0.61,0.61 v 6 a 0.23,0.23 0 0 0 0.26,0.26 h 5.23 a 0.61,0.61 0 0 1 0.61,0.61 v 3.59 a 0.59,0.59 0 0 1 -0.18,0.48 z" id="path15" style="fill:#ffffff" />
  <path class="cls-1" d="m 320.16668,227.89301 a 10.47,10.47 0 0 1 -4,-5.46 22.87,22.87 0 0 1 0,-12.21 10,10 0 0 1 4,-5.36 11.9,11.9 0 0 1 6.85,-2 12.22,12.22 0 0 1 7,2 9.53,9.53 0 0 1 3.95,5 9.43,9.43 0 0 1 0.36,1.64 v 0.1 a 0.58,0.58 0 0 1 -0.56,0.61 l -4.62,0.67 h -0.16 a 0.62,0.62 0 0 1 -0.62,-0.51 1.47,1.47 0 0 0 -0.05,-0.41 c -0.07,-0.28 -0.14,-0.52 -0.2,-0.72 a 4.47,4.47 0 0 0 -1.85,-2.36 5.82,5.82 0 0 0 -3.28,-0.9 5.4,5.4 0 0 0 -3.31,1 4.79,4.79 0 0 0 -1.82,2.74 16.11,16.11 0 0 0 -0.51,4.57 18.23,18.23 0 0 0 0.46,4.56 5.37,5.37 0 0 0 1.84,2.85 5.23,5.23 0 0 0 3.34,1.05 5.63,5.63 0 0 0 3.36,-1 4.55,4.55 0 0 0 1.82,-2.69 0.67,0.67 0 0 0 0.05,-0.26 0.23,0.23 0 0 0 0,-0.15 c 0.1,-0.41 0.34,-0.59 0.72,-0.52 l 4.61,0.72 a 0.82,0.82 0 0 1 0.44,0.23 0.54,0.54 0 0 1 0.13,0.49 c -0.1,0.55 -0.19,0.94 -0.26,1.18 a 9.13,9.13 0 0 1 -3.87,5.23 12.49,12.49 0 0 1 -7,1.93 11.51,11.51 0 0 1 -6.82,-2.02 z" id="path16" style="fill:#ffffff" />
  <path class="cls-1" d="m 362.28668,205.35301 a 9,9 0 0 1 2.49,6.72 v 16.82 a 0.6,0.6 0 0 1 -0.18,0.44 0.58,0.58 0 0 1 -0.43,0.18 h -4.72 a 0.61,0.61 0 0 1 -0.62,-0.62 v -15.59 a 5.44,5.44 0 0 0 -1.33,-3.82 4.54,4.54 0 0 0 -3.51,-1.5 4.72,4.72 0 0 0 -3.57,1.43 5.34,5.34 0 0 0 -1.35,3.8 v 15.64 a 0.61,0.61 0 0 1 -0.62,0.62 h -4.72 a 0.58,0.58 0 0 1 -0.43,-0.18 0.6,0.6 0 0 1 -0.18,-0.44 v -34.63 a 0.62,0.62 0 0 1 0.18,-0.44 0.61,0.61 0 0 1 0.43,-0.17 h 4.72 a 0.64,0.64 0 0 1 0.44,0.17 0.62,0.62 0 0 1 0.18,0.44 v 11.34 c 0,0.1 0,0.17 0.1,0.2 0.1,0.03 0.12,0 0.15,-0.1 q 2.1,-2.77 6.36,-2.77 a 9,9 0 0 1 6.61,2.46 z" id="path17" style="fill:#ffffff" />
  <path class="cls-1" d="m 392.92668,216.33301 -0.05,1.59 a 0.54,0.54 0 0 1 -0.62,0.61 h -16 c -0.17,0 -0.25,0.09 -0.25,0.26 a 7.14,7.14 0 0 0 0.46,2.31 q 1.23,3.69 6,3.74 a 6.48,6.48 0 0 0 5.52,-2.86 0.58,0.58 0 0 1 0.51,-0.31 0.49,0.49 0 0 1 0.36,0.15 l 3.18,2.62 a 0.54,0.54 0 0 1 0.15,0.82 10.51,10.51 0 0 1 -4.23,3.49 13.74,13.74 0 0 1 -5.87,1.23 12.31,12.31 0 0 1 -6.8,-1.8 10.28,10.28 0 0 1 -4.07,-5 20.12,20.12 0 0 1 -1.18,-7.7 15.62,15.62 0 0 1 0.61,-4.82 10.28,10.28 0 0 1 3.84,-5.68 11.27,11.27 0 0 1 6.85,-2.08 q 10.11,0 11.39,10.56 a 19.33,19.33 0 0 1 0.2,2.87 z m -14.74,-7.35 a 5,5 0 0 0 -1.77,2.64 8.32,8.32 0 0 0 -0.41,2.25 c -0.07,0.18 0,0.26 0.2,0.26 h 10.41 a 0.23,0.23 0 0 0 0.26,-0.26 9.42,9.42 0 0 0 -0.31,-1.94 5,5 0 0 0 -1.82,-2.88 5.52,5.52 0 0 0 -3.41,-1 5,5 0 0 0 -3.15,0.93 z" id="path18" style="fill:#ffffff" />
  <path class="cls-1" d="m 417.28668,205.35301 a 9,9 0 0 1 2.49,6.72 v 16.82 a 0.6,0.6 0 0 1 -0.18,0.44 0.59,0.59 0 0 1 -0.44,0.18 h -4.71 a 0.59,0.59 0 0 1 -0.44,-0.18 0.6,0.6 0 0 1 -0.18,-0.44 v -15.59 a 5.44,5.44 0 0 0 -1.33,-3.82 4.54,4.54 0 0 0 -3.51,-1.5 4.72,4.72 0 0 0 -3.57,1.43 5.34,5.34 0 0 0 -1.36,3.8 v 15.64 a 0.64,0.64 0 0 1 -0.17,0.44 0.62,0.62 0 0 1 -0.44,0.18 h -4.72 a 0.6,0.6 0 0 1 -0.44,-0.18 0.6,0.6 0 0 1 -0.17,-0.44 v -25 a 0.57,0.57 0 0 1 0.17,-0.43 0.6,0.6 0 0 1 0.44,-0.18 h 4.72 a 0.62,0.62 0 0 1 0.44,0.18 0.61,0.61 0 0 1 0.17,0.43 v 1.65 a 0.2,0.2 0 0 0 0.11,0.2 c 0.07,0 0.12,0 0.15,-0.1 q 2.1,-2.77 6.36,-2.77 a 9,9 0 0 1 6.61,2.52 z" id="path19" style="fill:#ffffff" />
  <path class="cls-1" d="m 162.53668,88.233011 a 82,82 0 0 1 33.45,127.539999 81.79,81.79 0 0 0 29.37,-77 82,82 0 0 0 -62.82,-50.539999 z" id="path20" />
  <path class="cls-2" d="m 263.04668,266.34301 c -0.81,-0.82 -23.32,-23 -28,-27.67 -3.9,-3.9 -10.86,-7.35 -13.17,-8.44 l -4.24,-16.05 a 82,82 0 0 0 7.74,-75.39 81.79,81.79 0 0 1 -29.37,77 81.87,81.87 0 0 1 -70,30.32 c -2.43,-0.19 -4.83,-0.49 -7.19,-0.88 a 82,82 0 0 0 79.46,-10.53 l 15.12,4 c 1.06,2.29 4.44,9.17 8.45,13.17 4.86,4.86 27,26.58 28,27.67 1,1.09 4.48,-0.27 8.76,-4.55 4.28,-4.28 5.26,-7.84 4.44,-8.65 z m -53.46,-34.45 -6.14,-1.43 a 82.87,82.87 0 0 0 10.07,-10.61 l 1.53,6.58 a 4.55,4.55 0 0 1 -5.46,5.46 z m 46.88,36.14 a 10,10 0 0 1 -2.12,2.91 9.5,9.5 0 0 1 -2.78,2 1.06,1.06 0 0 1 -1.13,-0.29 l -5.27,-5.26 a 1,1 0 0 1 -0.1,-1.4 l 4.48,-4.48 a 1,1 0 0 1 1.4,0.1 l 5.25,5.25 a 1,1 0 0 1 0.27,1.17 z" id="path21" />
  <path class="cls-3" d="m 162.53668,88.233011 c -2.37,-0.39 -4.76,-0.7 -7.19,-0.88 a 81.95,81.95 0 0 0 -87.000003,94.999999 81.93,81.93 0 0 0 127.640003,33.42 82,82 0 0 0 -33.45,-127.539999 z" id="path22" />
  <path class="cls-4" d="m 195.98668,215.77301 a 81.93,81.93 0 0 1 -127.680003,-33.44 82.08,82.08 0 0 0 50.490003,62.88 c 2.36,0.39 4.76,0.69 7.19,0.88 a 81.87,81.87 0 0 0 70,-30.32 z" id="path23" />
  <path class="cls-5" d="m 138.31668,82.643011 a 82.12,82.12 0 0 1 24.22,5.59 82,82 0 0 1 62.8,50.559999 81.94,81.94 0 0 0 -144.680003,-38.15 81.68,81.68 0 0 1 57.660003,-17.999999 z" id="path24" />
  <path class="cls-6" d="m 68.306677,182.33301 a 82,82 0 0 1 12.35,-81.69 81.93,81.93 0 0 0 38.140003,144.57 82.08,82.08 0 0 1 -50.490003,-62.88 z" id="path25" />
  <path class="cls-7" d="M 68.306677,182.33301 A 81.95,81.95 0 0 1 155.30668,87.333011 c 2.43,0.18 4.82,0.49 7.19,0.88 a 82,82 0 0 0 -81.840003,12.429999 82,82 0 0 0 -12.35,81.69 z" id="path26" />
  <path class="cls-8" d="m 175.31668,136.11301 a 6.62,6.62 0 1 0 -8.3,-4.32 6.61,6.61 0 0 0 8.3,4.32 z" id="path27" />
  <path class="cls-8" d="m 169.22668,142.80301 a 3.08,3.08 0 1 0 -3.35,-2.82 3.07,3.07 0 0 0 3.35,2.82 z" id="path28" />
  <path class="cls-8" d="m 153.07668,144.22301 a 3.08,3.08 0 1 0 -3.35,-2.78 3.07,3.07 0 0 0 3.35,2.78 z" id="path29" />
  <path class="cls-8" d="m 157.81668,126.34301 a 4.22,4.22 0 1 0 3.82,-4.59 4.22,4.22 0 0 0 -3.82,4.59 z" id="path30" />
  <path class="cls-8" d="m 154.14668,129.74301 a 2.69,2.69 0 1 0 -2.93,-2.43 2.69,2.69 0 0 0 2.93,2.43 z" id="path31" />
  <path class="cls-8" d="m 165.30668,135.38301 a 4.72,4.72 0 1 0 -4.27,5.13 4.72,4.72 0 0 0 4.27,-5.13 z" id="path32" />
  <path class="cls-8" d="m 161.52668,143.92301 a 2.5,2.5 0 1 0 -2.26,2.72 2.5,2.5 0 0 0 2.26,-2.72 z" id="path33" />
  <path class="cls-8" d="m 157.04668,122.05301 a 1.89,1.89 0 0 0 2.19,-1.56 1.91,1.91 0 1 0 -2.19,1.56 z" id="path34" />
  <path class="cls-8" d="m 126.33668,118.36301 a 9.23,9.23 0 1 0 -9.66,-8.77 9.23,9.23 0 0 0 9.66,8.77 z" id="path35" />
  <path class="cls-8" d="m 112.05668,185.98301 a 4.08,4.08 0 1 0 -4.26,-3.89 4.09,4.09 0 0 0 4.26,3.89 z" id="path36" />
  <path class="cls-8" d="m 113.55668,193.32301 a 6.45,6.45 0 1 0 -6.14,6.74 6.46,6.46 0 0 0 6.14,-6.74 z" id="path37" />
  <path class="cls-8" d="m 121.09668,181.60301 a 6,6 0 1 0 6.3,5.74 6,6 0 0 0 -6.3,-5.74 z" id="path38" />
  <path class="cls-8" d="m 134.16668,186.98301 a 7.35,7.35 0 1 0 7.69,7 7.36,7.36 0 0 0 -7.69,-7 z" id="path39" />
  <path class="cls-8" d="m 114.43668,215.07301 a 7.3,7.3 0 1 0 -7.63,-7 7.3,7.3 0 0 0 7.63,7 z" id="path40" />
  <path class="cls-8" d="m 108.42668,220.75301 a 3.81,3.81 0 1 0 3.63,-4 3.82,3.82 0 0 0 -3.63,4 z" id="path41" />
  <path class="cls-8" d="m 113.91668,233.56301 a 2.2,2.2 0 1 0 2.3,2.09 2.19,2.19 0 0 0 -2.3,-2.09 z" id="path42" />
  <path class="cls-8" d="m 117.45668,223.65301 a 1.95,1.95 0 1 0 2,1.86 2,2 0 0 0 -2,-1.86 z" id="path43" />
  <path class="cls-8" d="m 103.34668,186.26301 a 2.66,2.66 0 1 0 -2.78,-2.53 2.66,2.66 0 0 0 2.78,2.53 z" id="path44" />
  <path class="cls-8" d="m 114.64668,228.98301 a 3.43,3.43 0 1 0 -3.27,3.59 3.43,3.43 0 0 0 3.27,-3.59 z" id="path45" />
  <path class="cls-8" d="m 121.68668,213.32301 a 5,5 0 1 0 5.2,4.74 5,5 0 0 0 -5.2,-4.74 z" id="path46" />
  <path class="cls-8" d="m 128.20668,203.78301 a 5.31,5.31 0 1 0 5.55,5 5.29,5.29 0 0 0 -5.55,-5 z" id="path47" />
  <path class="cls-8" d="m 120.39668,200.43301 a 3.67,3.67 0 1 0 3.5,-3.84 3.67,3.67 0 0 0 -3.5,3.84 z" id="path48" />
  <path class="cls-8" d="m 114.98668,196.78301 a 2.42,2.42 0 1 0 2.31,-2.53 2.43,2.43 0 0 0 -2.31,2.53 z" id="path49" />
  <path class="cls-8" d="m 198.63668,157.68301 a 4.63,4.63 0 1 0 -5.82,-3 4.63,4.63 0 0 0 5.82,3 z" id="path50" />
  <path class="cls-8" d="m 102.15668,176.45301 a 3.11,3.11 0 1 0 -3.000003,3.25 3.11,3.11 0 0 0 3.000003,-3.25 z" id="path51" />
  <path class="cls-8" d="m 97.986677,146.34301 a 3.71,3.71 0 1 0 -3.89,-3.52 3.71,3.71 0 0 0 3.89,3.52 z" id="path52" />
  <path class="cls-8" d="m 185.98668,132.71301 a 3.44,3.44 0 1 0 -4.31,-2.24 3.44,3.44 0 0 0 4.31,2.24 z" id="path53" />
  <path class="cls-8" d="m 207.69668,133.20301 a 10,10 0 1 0 -6.5,12.49 10,10 0 0 0 6.5,-12.49 z" id="path54" />
  <path class="cls-8" d="m 186.13668,121.06301 a 6.58,6.58 0 1 0 4.29,-8.25 6.56,6.56 0 0 0 -4.29,8.25 z" id="path55" />
  <path class="cls-8" d="m 178.12668,139.71301 a 4.55,4.55 0 1 0 3,-5.71 4.55,4.55 0 0 0 -3,5.71 z" id="path56" />
  <path class="cls-8" d="m 181.87668,123.13301 a 3.83,3.83 0 1 0 -4.82,-2.5 3.83,3.83 0 0 0 4.82,2.5 z" id="path57" />
  <path class="cls-8" d="m 173.41668,120.82301 a 3.11,3.11 0 1 0 -3.9,-2 3.11,3.11 0 0 0 3.9,2 z" id="path58" />
  <circle class="cls-8" cx="159.60318" cy="204.87645" r="7.4000001" transform="rotate(-16.58)" id="circle58" />
  <path class="cls-8" d="m 211.07668,138.39301 a 3.11,3.11 0 1 0 3.3,-2.89 3.11,3.11 0 0 0 -3.3,2.89 z" id="path59" />
  <path class="cls-8" d="m 205.37668,124.45301 a 4.67,4.67 0 1 0 5,-4.36 4.67,4.67 0 0 0 -5,4.36 z" id="path60" />
  <path class="cls-8" d="m 108.26668,145.84301 a 6.09,6.09 0 1 0 -6.38,-5.79 6.09,6.09 0 0 0 6.38,5.79 z" id="path61" />
  <path class="cls-8" d="m 114.54668,137.07301 a 4.82,4.82 0 1 0 4.58,-5.09 4.82,4.82 0 0 0 -4.58,5.09 z" id="path62" />
  <path class="cls-8" d="m 91.986677,130.98301 a 4.78,4.78 0 1 0 4.54,-5 4.78,4.78 0 0 0 -4.54,5 z" id="path63" />
  <path class="cls-8" d="m 108.41668,161.70301 a 7.34,7.34 0 1 0 -8.780003,-5.53 7.34,7.34 0 0 0 8.780003,5.53 z" id="path64" />
  <path class="cls-8" d="m 88.356677,157.98301 a 6,6 0 1 0 -5.73,6.33 6,6 0 0 0 5.73,-6.33 z" id="path65" />
  <path class="cls-8" d="m 83.876677,138.82301 a 5.85,5.85 0 1 0 -6.13,-5.56 5.85,5.85 0 0 0 6.13,5.56 z" id="path66" />
  <path class="cls-8" d="m 79.986677,149.38301 a 2.85,2.85 0 1 0 -2.7,3 2.84,2.84 0 0 0 2.7,-3 z" id="path67" />
  <path class="cls-8" d="m 92.756677,145.13301 a 5.84,5.84 0 1 0 -5.55,6.11 5.83,5.83 0 0 0 5.55,-6.11 z" id="path68" />
  <path class="cls-8" d="m 95.176677,147.75301 a 3.48,3.48 0 1 0 3.65,3.31 3.49,3.49 0 0 0 -3.65,-3.31 z" id="path69" />
  <path class="cls-8" d="m 100.98668,167.67301 a 2.74,2.74 0 1 0 -2.870003,-2.6 2.74,2.74 0 0 0 2.870003,2.6 z" id="path70" />
  <path class="cls-8" d="m 112.39668,162.98301 a 2.79,2.79 0 1 0 2.65,-3 2.8,2.8 0 0 0 -2.65,3 z" id="path71" />
  <path class="cls-8" d="m 91.226677,166.72301 a 4.55,4.55 0 1 0 4.76,4.32 4.54,4.54 0 0 0 -4.76,-4.32 z" id="path72" />
  <path class="cls-8" d="m 93.686677,165.44301 a 4.47,4.47 0 1 0 -4.7,-4.25 4.47,4.47 0 0 0 4.7,4.25 z" id="path73" />
  <path class="cls-8" d="m 84.986677,164.73301 a 2.29,2.29 0 1 0 2.4,2.18 2.29,2.29 0 0 0 -2.4,-2.18 z" id="path74" />
  <path class="cls-8" d="m 121.11668,122.91301 a 1.91,1.91 0 1 0 -2,-1.81 1.91,1.91 0 0 0 2,1.81 z" id="path75" />
  <path class="cls-8" d="m 141.31668,100.38301 a 3.11,3.11 0 1 0 2.75,3.43 3.12,3.12 0 0 0 -2.75,-3.43 z" id="path76" />
  <path class="cls-8" d="m 107.12668,125.11301 a 5.33,5.33 0 1 0 5.07,-5.59 5.32,5.32 0 0 0 -5.07,5.59 z" id="path77" />
  <path class="cls-8" d="m 108.32668,114.38301 a 5.89,5.89 0 1 0 -6.17,-5.59 5.88,5.88 0 0 0 6.17,5.59 z" id="path78" />
  <path class="cls-8" d="m 159.75668,164.72301 a 2,2 0 0 0 1.88,-2.07 2,2 0 1 0 -1.88,2.07 z" id="path79" />
  <path class="cls-8" d="m 175.75668,157.90301 a 2.63,2.63 0 1 0 2.76,2.5 2.64,2.64 0 0 0 -2.76,-2.5 z" id="path80" />
  <path class="cls-8" d="m 165.92668,187.98301 a 2.13,2.13 0 1 0 2.23,2 2.13,2.13 0 0 0 -2.23,-2 z" id="path81" />
  <path class="cls-8" d="m 201.62668,180.04301 a 2,2 0 1 0 1.87,-2.06 2,2 0 0 0 -1.87,2.06 z" id="path82" />
  <path class="cls-8" d="m 212.91668,179.24301 a 2,2 0 1 0 2.07,1.88 2,2 0 0 0 -2.07,-1.88 z" id="path83" />
  <path class="cls-8" d="m 201.73668,201.40301 a 3,3 0 1 0 3.19,2.9 3,3 0 0 0 -3.19,-2.9 z" id="path84" />
  <path class="cls-8" d="m 186.61668,158.71301 a 2,2 0 1 0 -1.87,2.06 2,2 0 0 0 1.87,-2.06 z" id="path85" />
  <path class="cls-8" d="m 175.72668,185.75301 a 3.34,3.34 0 1 0 -2.18,4.2 3.34,3.34 0 0 0 2.18,-4.2 z" id="path86" />
  <path class="cls-8" d="m 180.41668,161.87301 a 2.71,2.71 0 1 0 3.4,1.77 2.71,2.71 0 0 0 -3.4,-1.77 z" id="path87" />
  <path class="cls-8" d="m 184.98668,184.36301 a 2.59,2.59 0 1 0 3.25,1.69 2.59,2.59 0 0 0 -3.25,-1.69 z" id="path88" />
  <path class="cls-8" d="m 208.44668,182.81301 a 2.59,2.59 0 1 0 3.25,1.68 2.58,2.58 0 0 0 -3.25,-1.68 z" id="path89" />
  <path class="cls-8" d="m 191.78668,175.20301 a 3.27,3.27 0 1 0 4.11,2.13 3.27,3.27 0 0 0 -4.11,-2.13 z" id="path90" />
  <path class="cls-8" d="m 170.55668,173.51301 a 10.31,10.31 0 1 0 -6.73,12.93 10.32,10.32 0 0 0 6.73,-12.93 z" id="path91" />
  <path class="cls-8" d="m 194.98668,182.90301 a 9.27,9.27 0 1 0 11.63,6 9.27,9.27 0 0 0 -11.63,-6 z" id="path92" />
  <path class="cls-8" d="m 198.16668,163.87301 a 6.85,6.85 0 1 0 -4.47,8.59 6.85,6.85 0 0 0 4.47,-8.59 z" id="path93" />
  <path class="cls-8" d="m 179.83668,184.24301 a 7.66,7.66 0 1 0 -7.15,-8.14 7.65,7.65 0 0 0 7.15,8.14 z" id="path94" />
  <path class="cls-8" d="m 173.86668,170.48301 a 3.55,3.55 0 1 0 -4.46,-2.32 3.56,3.56 0 0 0 4.46,2.32 z" id="path95" />
  <path class="cls-8" d="m 199.98668,169.98301 a 3.58,3.58 0 1 0 4.49,2.34 3.59,3.59 0 0 0 -4.49,-2.34 z" id="path96" />
  <path class="cls-8" d="m 167.98668,164.39301 a 4.38,4.38 0 1 0 -5.5,-2.85 4.38,4.38 0 0 0 5.5,2.85 z" id="path97" />
  <path class="cls-8" d="m 185.31668,215.52301 a 6.85,6.85 0 1 0 6.85,6.85 6.85,6.85 0 0 0 -6.85,-6.85 z" id="path98" />
  <path class="cls-8" d="m 185.16668,209.27301 a 6.27,6.27 0 1 0 -6.27,6.26 6.27,6.27 0 0 0 6.27,-6.26 z" id="path99" />
  <path class="cls-8" d="m 193.98668,204.98301 a 5.93,5.93 0 1 0 6,6 5.93,5.93 0 0 0 -6,-6 z" id="path100" />
  <path class="cls-8" d="m 173.42668,195.42301 a 5.87,5.87 0 1 0 5.87,-5.87 5.87,5.87 0 0 0 -5.87,5.87 z" id="path101" />
  <path class="cls-8" d="m 187.98668,205.74301 a 3.64,3.64 0 1 0 -3.64,-3.64 3.64,3.64 0 0 0 3.64,3.64 z" id="path102" />
  <path class="cls-8" d="m 186.98668,112.50301 a 1.9,1.9 0 1 0 -2.17,-1.59 1.9,1.9 0 0 0 2.17,1.59 z" id="path103" />
  <path class="cls-8" d="m 202.35668,124.90301 a 2.31,2.31 0 1 0 -2.62,-1.92 2.31,2.31 0 0 0 2.62,1.92 z" id="path104" />
  <path class="cls-8" d="m 210.11668,118.71301 a 9.82,9.82 0 0 0 2.66,-1.3 82.42,82.42 0 0 0 -14,-13.59 10,10 0 0 0 11.37,14.89 z" id="path105" />
  <path class="cls-8" d="m 218.70668,125.72301 a 5.12,5.12 0 1 0 4.87,9 82.78,82.78 0 0 0 -4.87,-9 z" id="path106" />
  <path class="cls-8" d="m 78.396677,139.98301 a 6.22,6.22 0 0 0 -3.59,-5.33 80.33,80.33 0 0 0 -4.34,11.58 6.18,6.18 0 0 0 7.93,-6.25 z" id="path107" />
  <path class="cls-8" d="m 88.086677,126.45301 a 7.05,7.05 0 0 0 1.67,-13.81 81.86,81.86 0 0 0 -8.2,10.14 7.06,7.06 0 0 0 6.53,3.67 z" id="path108" />
</svg>
